<?xml version="1.0" encoding="UTF-8"?>
<svg width="153px" height="46px" viewBox="0 0 153 46" version="1.1" xmlns="http://www.w3.org/2000/svg" xmlns:xlink="http://www.w3.org/1999/xlink">
    <!-- Generator: Sketch 44.1 (41455) - http://www.bohemiancoding.com/sketch -->
    <title>设计家logo</title>
    <desc>Created with Sketch.</desc>
    <defs>
        <polygon id="path-1" points="0.195721165 11.8834951 40.7632998 11.8834951 40.7632998 0.292720194 0.195721165 0.292720194"></polygon>
        <polygon id="path-3" points="0 45.6121223 152.881462 45.6121223 152.881462 0 0 0"></polygon>
    </defs>
    <g id="Page-1" stroke="none" stroke-width="1" fill="none" fill-rule="evenodd">
        <g id="设计云平台" transform="translate(-770.000000, -3353.000000)">
            <g id="Group-11" transform="translate(364.000000, 1030.000000)">
                <g id="Group-10">
                    <g id="Group-2" transform="translate(231.000000, 2323.000000)">
                        <g id="设计家logo" transform="translate(175.000000, 0.000000)">
                            <path d="M20.9003645,2.53207573 C21.4158111,2.67111262 21.7212169,3.19992816 21.5836654,3.71537476 L11.5842984,41.0328175 C11.4464499,41.5491553 10.9167431,41.8536699 10.4012965,41.7164155 L1.07126738,39.2182078 C0.557306214,39.079468 0.251306214,38.5488699 0.387966408,38.0340175 L10.3882247,0.715683495 C10.5266674,0.199642718 11.0551858,-0.104871845 11.5712266,0.0335708738 L20.9003645,2.53207573 Z" id="Fill-1" fill="#36B6E4"></path>
                            <path d="M20.9003645,2.53207573 L11.5721179,0.0335708738 C11.0551858,-0.104871845 10.5266674,0.199642718 10.3891159,0.71627767 L11.5854868,41.0343029 L21.5836654,3.71537476 C21.6781392,3.36273204 21.565246,3.00414757 21.3195548,2.76826019 C21.2057703,2.65804078 21.0631683,2.57604466 20.9003645,2.53207573" id="Fill-3" fill="#1696C7"></path>
                            <path d="M33.820041,13.02948 C34.2288332,13.3723188 34.2814177,13.9804567 33.9400643,14.3898431 L9.10593612,43.9859849 C8.76280019,44.3950742 8.15317689,44.4473616 7.74438466,44.105414 L0.345720583,37.8962878 C-0.0639629126,37.5540431 -0.116844466,36.945014 0.226588544,36.5344392 L25.0610138,6.93978291 C25.4035555,6.53069359 26.0119905,6.47840621 26.4207827,6.82154214 L33.820041,13.02948 Z" id="Fill-5" fill="#F45A4A"></path>
                            <path d="M33.820041,13.02948 L26.4207827,6.82065087 C26.0119905,6.47840621 25.4035555,6.53069359 25.0598254,6.93948583 L9.10593612,43.9859849 L33.9400643,14.3898431 C34.2814177,13.9804567 34.2288332,13.3723188 33.820041,13.02948" id="Fill-7" fill="#DF4D45"></path>
                            <path d="M41.0930074,28.0016441 C41.3187938,28.4855994 41.1096443,29.0601664 40.6256889,29.2850616 L6.53164427,45.1828014 L3.94312194,44.3236247 L0.245869515,36.3922829 C0.0203801942,35.9092188 0.228935534,35.3340577 0.711999612,35.1076771 L35.726421,18.7800518 C36.2109705,18.5545625 36.7861317,18.7643062 37.0104326,19.2476674 L41.0930074,28.0016441 Z" id="Fill-9" fill="#B3DC00"></path>
                            <path d="M41.0930074,28.0016441 L37.0104326,19.2488557 C36.9637899,19.1463606 36.9005103,19.0566402 36.8265355,18.9802887 C36.5475705,18.695679 36.1081783,18.6023936 35.7270151,18.7800518 L8.14839379,43.3518518 L8.6376967,44.2030072 L40.6265802,29.2850616 C41.1096443,29.0601664 41.3187938,28.4855994 41.0930074,28.0016441" id="Fill-11" fill="#A5C200"></path>
                            <g id="Group-15" transform="translate(0.594175, 33.728627)">
                                <mask id="mask-2" fill="white">
                                    <use xlink:href="#path-1"></use>
                                </mask>
                                <g id="Clip-14"></g>
                                <path d="M40.7632998,10.917159 C40.7632998,11.4513221 40.3292551,11.8835843 39.7965775,11.8835843 L1.1624435,11.8835843 C0.895659029,11.8835843 0.653235728,11.7766328 0.477657087,11.6001629 C0.303266796,11.4248814 0.195721165,11.1833493 0.195721165,10.917159 L0.195721165,1.25884835 C0.195721165,0.724685243 0.627983301,0.292720194 1.1624435,0.292720194 L39.7965775,0.292720194 C40.3292551,0.292720194 40.7632998,0.724685243 40.7632998,1.25884835 L40.7632998,10.917159 Z" id="Fill-13" fill="#FFC200" mask="url(#mask-2)"></path>
                            </g>
                            <path d="M41.3574746,44.6457862 L41.3574746,34.9868814 C41.3574746,34.7209882 41.2490377,34.4815357 41.0764299,34.3068483 C40.9002571,34.1300814 40.6596163,34.0213474 40.3907522,34.0213474 L1.75661825,45.6113202 L40.3907522,45.6113202 C40.9234299,45.6113202 41.3574746,45.1799493 41.3574746,44.6457862" id="Fill-16" fill="#FBA800"></path>
                            <path d="M3.25179961,36.4814091 C3.53611223,36.1959082 4.09136854,36.0651897 4.45292388,36.1659023 C4.45292388,36.1659023 4.6338501,36.3477198 4.76813359,36.4814091 C5.18791806,36.9005994 5.18791806,37.5797412 4.76813359,37.9995256 C4.34924039,38.4193101 3.66950447,38.4184188 3.25031417,37.9995256 L2.93599573,37.6849101 C2.59226563,37.263046 2.85756466,36.875347 3.25179961,36.4814091" id="Fill-18" fill="#F1AC2D"></path>
                            <path d="M2.61526019,36.9191971 C2.61526019,36.3262107 3.09446214,35.844632 3.68744854,35.844632 C4.28043495,35.844632 4.76082524,36.3262107 4.76082524,36.9191971 C4.76082524,37.5115893 4.28043495,37.9925738 3.68744854,37.9925738 C3.09446214,37.9925738 2.61526019,37.5115893 2.61526019,36.9191971" id="Fill-20" fill="#7D7D7D"></path>
                            <mask id="mask-4" fill="white">
                                <use xlink:href="#path-3"></use>
                            </mask>
                            <g id="Clip-23"></g>
                            <path d="M56.5511767,26.4838544 L65.2495981,26.4838544 L65.2495981,23.5712097 L56.5511767,23.5712097 L56.5511767,26.4838544 Z M53.4947417,14.7542505 L65.5633223,14.7542505 L65.5633223,12.4705398 L53.4947417,12.4705398 L53.4947417,14.7542505 Z M54.8271786,28.9244272 L54.8271786,22.0759689 L59.9210388,22.0759689 L59.9210388,19.9500117 L53.4157165,19.9500117 C53.4157165,23.6237942 52.6581437,26.615167 51.1432951,28.9244272 L49.653699,27.5860485 C51.1162602,25.802633 51.795699,22.8109631 51.6917184,18.611633 L51.6917184,10.897165 L67.3657515,10.897165 L67.3657515,16.2500854 L53.4947417,16.2500854 L53.4947417,18.4538796 L59.9210388,18.4538796 L59.9210388,16.3285165 L61.723468,16.3285165 L61.723468,18.4538796 L68.5413262,18.4538796 L68.5413262,19.9500117 L61.723468,19.9500117 L61.723468,22.0759689 L66.9738932,22.0759689 L66.9738932,28.9244272 L65.2498951,28.9244272 L65.2498951,27.8216388 L56.5511767,27.8216388 L56.5511767,28.9244272 L54.8271786,28.9244272 Z" id="Fill-22" fill="#323333" mask="url(#mask-4)"></path>
                            <path d="M87.8818037,28.4522068 C87.6194755,27.8734806 87.1768153,27.0606495 86.5493668,26.0110398 C86.2359396,25.4343932 86.0018348,24.988168 85.8452697,24.6729583 L87.4118115,24.043133 C87.8298134,24.726434 88.3788309,25.6711718 89.0582697,26.8773466 C89.3188153,27.296834 89.5009299,27.6117466 89.6058017,27.8217874 L87.8818037,28.4522068 Z M87.5683765,14.1242767 C87.4638017,14.0197019 87.3339746,13.8886864 87.1768153,13.7306359 C86.3933959,12.7858981 85.7923882,12.1308204 85.3743862,11.762432 L86.628392,10.9751505 C86.9929183,11.2900631 87.5166833,11.8159078 88.1952309,12.5503078 C88.5089551,12.8655175 88.7439513,13.1011078 88.9017047,13.2585641 L87.5683765,14.1242767 Z M82.6319726,28.2944534 C82.422526,27.6117466 82.0045241,26.6411621 81.3779668,25.3815117 C81.2725008,25.1729563 81.1940697,25.0152029 81.1420794,24.9097369 L82.8663746,24.5155019 C82.9709493,24.7796126 83.1530639,25.1453272 83.415392,25.6179932 C83.8325027,26.5107408 84.1723707,27.2445466 84.4344017,27.8217874 L82.6319726,28.2944534 Z M80.5146309,16.4858243 L80.5146309,14.9118553 L82.9453998,14.9118553 C82.9967959,14.0728806 83.024425,12.4706883 83.024425,10.109735 L84.7475318,10.109735 C84.7475318,12.1560728 84.7213882,13.757968 84.6693979,14.9118553 L89.4498309,14.9118553 L89.4498309,16.4858243 L84.9037998,16.4858243 C85.4783668,19.0580068 87.124825,20.9471854 89.8416891,22.1542515 C89.735926,22.3111136 89.5538115,22.547001 89.2923746,22.8628049 C89.0303435,23.2303019 88.8482289,23.492333 88.7439513,23.6494922 C86.1313649,22.2326825 84.5119416,20.3699447 83.8853843,18.0606845 C83.3634017,20.4228262 81.7944833,22.390733 79.1833823,23.964999 C79.0262231,23.7558495 78.7650833,23.4406398 78.3996658,23.0199641 C78.189625,22.8111117 78.0592037,22.6533583 78.0084017,22.547001 C80.8289493,20.973032 82.3969765,18.9537291 82.7095124,16.4858243 L80.5146309,16.4858243 Z M77.7725144,28.5306379 C77.7196328,28.3728845 77.642093,28.1369971 77.5375183,27.8217874 C77.1712095,26.7195932 76.8316386,25.7757466 76.5182115,24.988168 L78.2433979,24.6729583 C78.3470814,24.988168 78.5039435,25.4343932 78.713093,26.0110398 C79.0785105,26.8500146 79.3660911,27.5591621 79.5755377,28.1369971 L77.7725144,28.5306379 Z M72.9926755,28.8452534 L71.2677862,28.2157252 C71.9463338,27.1138282 72.6002231,25.8286282 73.2276717,24.3580456 L74.9516697,24.9097369 C74.7942134,25.2246495 74.5601085,25.7493058 74.2460872,26.4837058 C73.6706289,27.5333155 73.2541124,28.3205971 72.9926755,28.8452534 L72.9926755,28.8452534 Z M71.6602386,18.5321621 C71.5036736,18.113566 71.2407513,17.5621718 70.876225,16.8803563 C72.7047979,14.9388903 74.089225,12.6551796 75.0301008,10.0313039 L76.7535047,10.2668942 C76.4920678,10.9501951 76.2056755,11.6052728 75.8925454,12.2353951 L80.4370911,12.2353951 L80.4370911,13.9668204 C79.3405416,18.5321621 76.6756678,21.9967951 72.4436581,24.3580456 C72.1302309,23.8862709 71.7116348,23.4406398 71.1893551,23.0199641 C72.9142445,22.1812864 74.2722309,21.2089194 75.2650969,20.1070223 C74.3242212,19.3726223 73.5410988,18.7959757 72.9142445,18.3755971 L73.8542289,17.1940806 C74.898194,17.929966 75.7350891,18.4810631 76.3625377,18.847966 C76.6236775,18.5853408 76.9106639,18.1917 77.2249823,17.6664495 C76.3880872,17.0895058 75.5256425,16.5128592 74.6382425,15.9350243 L75.500093,14.9118553 C76.3352056,15.332234 77.1447687,15.777568 77.9299707,16.250234 C78.2433979,15.515834 78.529493,14.7033 78.791227,13.8093641 L75.1082348,13.8093641 C74.2187551,15.4893932 73.0702153,17.0642534 71.6602386,18.5321621 L71.6602386,18.5321621 Z" id="Fill-24" fill="#323333" mask="url(#mask-4)"></path>
                            <path d="M100.720702,20.1070817 C101.660687,21.838507 102.705543,23.1774798 103.854677,24.1222177 C105.160673,23.1260837 106.28396,21.787705 107.224539,20.1070817 L100.720702,20.1070817 Z M98.6033604,17.8236682 C98.4987856,17.7196876 98.3148885,17.5090526 98.0549371,17.19414 C97.741807,16.8804157 97.5068109,16.64334 97.3493546,16.4858837 C99.2308089,15.6991963 100.093254,14.4662837 99.9357973,12.7856604 L99.9357973,10.9752099 L108.164523,10.9752099 L108.164523,14.3596293 C108.112533,15.0429303 108.451213,15.35814 109.183533,15.3052584 L110.907531,15.3052584 L110.671644,17.037575 L108.478545,17.037575 C107.067677,17.037575 106.362689,16.3813089 106.362689,15.069074 L106.362689,12.6282041 L101.660687,12.6282041 L101.660687,13.1793012 C101.81636,15.17454 100.798242,16.7226623 98.6033604,17.8236682 L98.6033604,17.8236682 Z M97.4283798,28.9246351 C97.2718148,28.6097225 96.9304614,28.0580313 96.4093701,27.2707497 C99.1253429,26.5901225 101.111372,25.8806779 102.365675,25.1453866 C101.111372,24.0431924 99.9613468,22.4178274 98.9167876,20.2648351 L99.2308089,20.1070817 L98.2117992,20.1070817 L98.2117992,18.4540876 L109.261073,18.4540876 L109.261073,20.2648351 C107.955968,22.521808 106.64819,24.1489555 105.343976,25.1453866 C106.805646,25.9858468 108.634516,26.6150779 110.829991,27.0351594 C110.410504,27.611806 110.096483,28.1629031 109.888522,28.6881536 C107.328223,28.006041 105.316644,27.2184623 103.854677,26.3260118 C102.130679,27.32274 99.9868963,28.1884526 97.4283798,28.9246351 L97.4283798,28.9246351 Z M95.8603526,14.7541614 C95.5989157,14.3878526 95.1553643,13.8094235 94.5285099,13.0215478 C93.9013584,12.2883361 93.4313662,11.7366449 93.117939,11.3697419 L94.6078322,10.4244099 C94.9203682,10.7393225 95.4165041,11.2639788 96.09624,11.9983788 C96.7227973,12.7348584 97.1927895,13.2853614 97.5068109,13.6519672 L95.8603526,14.7541614 Z M94.685372,27.6643905 L93.5097973,26.4837652 C93.8229274,26.0110992 93.9803837,25.4873342 93.9803837,24.9097963 L93.9803837,18.139175 L91.9420672,18.139175 L91.9420672,16.4858837 L95.7828128,16.4858837 L95.7828128,24.2003517 C96.252805,23.7291711 96.9058031,23.0200235 97.741807,22.0758798 C97.8463817,22.338505 97.9776944,22.6795614 98.1342594,23.0990487 C98.2376458,23.4139614 98.3148885,23.6495517 98.3683643,23.807305 C97.8463817,24.279674 97.0088924,25.1453866 95.8603526,26.4056313 C96.6954652,25.4608934 96.6170342,25.5390274 95.6262478,26.6412216 C95.2590478,26.9032526 94.9453235,27.2443089 94.685372,27.6643905 L94.685372,27.6643905 Z" id="Fill-25" fill="#323333" mask="url(#mask-4)"></path>
                            <path d="M119.277047,18.3756268 L119.277047,16.5648792 L124.683443,16.5648792 L124.683443,10.1097647 L126.565492,10.1097647 L126.565492,16.5648792 L131.972779,16.5648792 L131.972779,18.3756268 L126.565492,18.3756268 L126.565492,28.9246054 L124.683443,28.9246054 L124.683443,18.3756268 L119.277047,18.3756268 Z M117.553049,14.6754035 C117.343603,14.4133724 117.005517,14.0461724 116.534634,13.5735064 C115.645154,12.5767783 114.966309,11.8411899 114.496614,11.3697122 L115.907185,10.2669239 C117.005517,11.3168307 118.07414,12.392287 119.120482,13.4941841 L117.553049,14.6754035 Z M115.985616,28.6881239 L114.732204,27.1922889 C115.202197,26.7719103 115.436302,26.196155 115.436302,25.4608637 L115.436302,18.2968986 L113.008206,18.2968986 L113.008206,16.5648792 L117.239622,16.5648792 L117.239622,25.3028132 C117.396484,25.1985355 117.65703,25.0152326 118.023636,24.7523103 C119.120482,24.0179103 119.904199,23.4665161 120.375082,23.099019 C120.478469,23.8343103 120.660583,24.5155317 120.922614,25.1453569 C120.870624,25.1985355 120.79249,25.2517142 120.688509,25.3028132 C118.962729,26.3010268 117.709614,27.1138579 116.926195,27.7439802 C116.769927,27.9011394 116.560183,28.1099918 116.299043,28.3729142 C116.143072,28.5306676 116.037012,28.6343511 115.985616,28.6881239 L115.985616,28.6881239 Z" id="Fill-26" fill="#323333" mask="url(#mask-4)"></path>
                            <path d="M134.621135,15.8558802 L134.621135,12.2352763 L143.00702,12.2352763 L142.14517,10.1883443 L144.182892,9.87343165 C144.496022,10.5026627 144.783009,11.2640977 145.043554,12.1562511 L144.888772,12.2352763 L152.332296,12.2352763 L152.332296,15.8558802 L150.530758,15.8558802 L150.530758,13.7308142 L136.502589,13.7308142 L136.502589,15.8558802 L134.621135,15.8558802 Z M137.286603,16.9580744 L137.286603,15.5412647 L149.824879,15.5412647 L149.824879,16.9580744 L144.80945,16.9580744 C144.652884,17.0641346 144.442547,17.1942588 144.182892,17.3517151 C143.660018,17.7195093 143.242017,17.9815404 142.928886,18.1392938 C143.660018,18.9262783 144.208442,19.7138569 144.574453,20.5008414 C146.611582,19.6621637 148.517991,18.7177229 150.295762,17.6666278 L151.235747,19.0843287 C150.1389,19.608985 149.015316,20.1606763 147.866479,20.7373229 C148.753879,23.3092083 150.425292,25.1196588 152.881314,26.1686744 C152.514411,26.5902414 152.123741,27.0608278 151.705739,27.5860783 C149.092855,26.2747346 147.317461,24.2004705 146.376883,21.366554 C146.272011,21.4197326 146.088411,21.5243074 145.828459,21.6814666 C145.567319,21.7878239 145.357873,21.8921016 145.201011,21.9969734 C145.515329,22.9414142 145.671003,23.9648802 145.671003,25.0670744 C145.722993,27.4286219 144.730127,28.6344996 142.692999,28.6879753 L140.108042,28.6879753 C140.054566,28.4785287 139.976135,28.1630219 139.872451,27.7441287 C139.820164,27.4286219 139.766688,27.1921404 139.714995,27.0352783 C140.029017,27.0352783 140.446127,27.0608278 140.969595,27.1140064 L141.988011,27.1140064 C143.293116,27.2182841 143.920861,26.5367656 143.869465,25.0670744 C143.869465,24.5944083 143.841539,24.1490744 143.791034,23.7292899 C141.544459,25.671053 138.591708,27.2182841 134.934265,28.3730627 C134.72571,27.8481093 134.46457,27.2970122 134.151143,26.7194744 C137.756595,25.8804996 140.83858,24.3579268 143.398582,22.1541326 C143.242017,21.8386258 143.085451,21.4726142 142.928886,21.0522355 C140.733708,22.7328588 138.121121,24.0180588 135.091721,24.9099151 C135.038246,24.7521617 134.908716,24.4901307 134.70016,24.1220394 C134.543298,23.8074239 134.411688,23.5712394 134.307708,23.4137831 C137.286603,22.6796802 139.898001,21.4987579 142.14517,19.870719 C142.091694,19.7138569 141.96157,19.5041132 141.753015,19.241785 C141.647251,19.1372103 141.570009,19.057888 141.518018,19.0050064 C139.637455,20.00322 137.494564,20.8424918 135.091721,21.5243074 C135.038246,21.3151579 134.908716,21.0522355 134.70016,20.7373229 C134.543298,20.3698258 134.411688,20.1072006 134.307708,19.9500414 C137.651129,19.319919 140.316003,18.323785 142.301438,16.9580744 L137.286603,16.9580744 Z" id="Fill-27" fill="#323333" mask="url(#mask-4)"></path>
                            <path d="M52.995219,39.501035 C51.441452,39.2814874 50.6770462,38.8617029 50.7225006,38.263666 C50.8422268,37.4716311 51.5154268,37.0643243 52.7807219,37.0188699 C54.0204676,37.0426369 54.7195142,37.5096583 54.9170773,38.4463748 L54.9479744,38.5931359 L55.8941977,38.345068 L55.8621122,38.2090019 C55.5584889,36.9285553 54.5085821,36.2666447 52.7361588,36.2428777 C50.8781744,36.2918971 49.894221,36.9618291 49.8107394,38.2342544 C49.7528074,39.2975301 50.7450792,39.9722155 52.7623025,40.2398913 C54.4155938,40.4383456 55.2189181,40.8925922 55.1499938,41.588668 C55.0534404,42.4950816 54.3404307,42.9570524 52.9753142,43.0016155 C51.4723491,43.0016155 50.6452579,42.4219981 50.4468035,41.2288951 L50.4197685,41.0666854 L49.4679006,41.3688233 L49.5011744,41.4995417 C49.8719394,42.9668563 50.9967122,43.7101689 52.8478637,43.7101689 C52.9046074,43.7101689 52.9622423,43.7092777 53.0201744,43.7080893 C54.8995491,43.6341146 55.9230151,42.9546757 56.0632404,41.6831417 C56.147019,40.4772641 55.113452,39.7428641 52.995219,39.501035" id="Fill-28" fill="#323333" mask="url(#mask-4)"></path>
                            <polygon id="Fill-29" fill="#323333" mask="url(#mask-4)" points="65.3033115 39.4995792 60.6431988 39.4995792 60.6431988 36.3480763 59.7679794 36.3480763 59.7679794 43.6032472 60.6431988 43.6032472 60.6431988 40.2411093 65.3033115 40.2411093 65.3033115 43.6032472 66.1782338 43.6032472 66.1782338 36.3480763 65.3033115 36.3480763"></polygon>
                            <polygon id="Fill-30" fill="#323333" mask="url(#mask-4)" points="71.5933643 40.241139 76.342306 40.241139 76.342306 39.4996089 71.5933643 39.4996089 71.5933643 37.0890419 76.617706 37.0890419 76.617706 36.348106 70.7181449 36.348106 70.7181449 43.6029798 76.8137837 43.6029798 76.8137837 42.9318594 71.5933643 42.9318594"></polygon>
                            <polygon id="Fill-31" fill="#323333" mask="url(#mask-4)" points="88.1137398 43.6032175 89.0008427 43.6032175 89.0008427 36.3480466 88.1137398 36.3480466"></polygon>
                            <polygon id="Fill-32" fill="#323333" mask="url(#mask-4)" points="100.255998 43.6032175 101.143398 43.6032175 101.143398 36.3480466 100.255998 36.3480466"></polygon>
                            <path d="M110.535875,40.6212029 L107.415863,40.6212029 L108.976166,37.3428437 L110.535875,40.6212029 Z M108.545984,36.3125447 L104.994601,43.6030689 L105.953005,43.6030689 L107.077481,41.3621388 L110.912879,41.3621388 L111.997248,43.6030689 L112.999918,43.6030689 L109.365648,36.3125447 L108.545984,36.3125447 Z" id="Fill-33" fill="#323333" mask="url(#mask-4)"></path>
                            <path d="M127.782926,41.0952652 C127.449891,42.3890808 126.563383,43.0186089 125.082402,43.018906 C123.302254,42.8837313 122.387225,41.8971041 122.283245,40.0204031 C122.412478,38.146673 123.354245,37.1704439 125.146573,37.0358633 C126.380971,37.0810206 127.193208,37.6024089 127.628738,38.6297371 L127.674489,38.7372827 L128.645965,38.5382342 L128.572584,38.3754303 C127.962664,37.0201177 126.840268,36.3085934 125.225598,36.2601682 C122.796017,36.3801915 121.493883,37.6624206 121.356035,40.0866536 C121.466849,42.3561041 122.72739,43.5801041 125.113596,43.7250827 C127.073779,43.7010186 128.294511,42.9000711 128.741627,41.3451157 L128.782031,41.2037021 L127.818577,40.9568225 L127.782926,41.0952652 Z" id="Fill-34" fill="#323333" mask="url(#mask-4)"></path>
                            <path d="M139.59417,40.0020728 C139.49108,41.9188806 138.471774,42.8942184 136.493172,42.9842359 C134.552894,42.872234 133.559731,41.8963019 133.457236,40.019601 C133.585875,38.1506243 134.59003,37.1631058 136.52704,37.0017874 C138.487519,37.139933 139.49108,38.1262631 139.59417,40.0020728 M136.599529,36.225201 C134.036556,36.3455214 132.66728,37.6277505 132.529432,40.0519835 C132.639651,42.3460922 133.981892,43.5700922 136.518721,43.6904126 L136.525257,43.6910068 L136.530902,43.6904126 C139.094172,43.5941563 140.450376,42.3582728 140.561486,39.9979136 C140.367785,37.6393369 139.040399,36.3698825 136.599529,36.225201" id="Fill-35" fill="#323333" mask="url(#mask-4)"></path>
                            <polygon id="Fill-36" fill="#323333" mask="url(#mask-4)" points="151.326804 36.3479575 148.589738 42.5882779 145.891293 36.4332216 145.853563 36.3479575 144.614412 36.3479575 144.614412 43.6369963 145.461705 43.6369963 145.461705 37.4005381 148.198177 43.5187555 148.236204 43.6031283 148.943272 43.6031283 151.718662 37.4005381 151.718662 43.6369963 152.606062 43.6369963 152.606062 36.3479575"></polygon>
                            <path d="M82.0584454,42.6889014 C82.0581483,42.7034586 82.0343814,44.1410645 80.8374163,44.561146 L80.7022416,44.6083829 L80.9779386,45.390614 L81.1122221,45.3433771 C82.8668202,44.7272179 82.886725,42.77268 82.886725,42.6897926 L82.886725,36.3475713 L82.0584454,36.3475713 L82.0584454,42.6889014 Z" id="Fill-37" fill="#323333" mask="url(#mask-4)"></path>
                            <path d="M94.3458012,42.6889014 C94.3455041,42.7034586 94.3217371,44.1410645 93.1250691,44.561146 L92.9898944,44.6083829 L93.2652944,45.390614 L93.399875,45.3433771 C95.1541759,44.7272179 95.1740808,42.77268 95.1740808,42.6897926 L95.1740808,36.3475713 L94.3458012,36.3475713 L94.3458012,42.6889014 Z" id="Fill-38" fill="#323333" mask="url(#mask-4)"></path>
                            <path d="M116.986801,41.8881617 C116.695952,41.8881617 116.459768,42.1243462 116.459768,42.4151948 C116.459768,42.7063404 116.695952,42.9425249 116.986801,42.9425249 C117.277649,42.9425249 117.513834,42.7063404 117.513834,42.4151948 C117.513834,42.1243462 117.277649,41.8881617 116.986801,41.8881617" id="Fill-39" fill="#323333" mask="url(#mask-4)"></path>
                        </g>
                    </g>
                </g>
            </g>
        </g>
    </g>
</svg>